<?xml version="1.0" standalone="no"?>
<!DOCTYPE svg PUBLIC "-//W3C//DTD SVG 20010904//EN"
 "http://www.w3.org/TR/2001/REC-SVG-20010904/DTD/svg10.dtd">
<svg version="1.0" xmlns="http://www.w3.org/2000/svg"
 width="260.000000pt" height="260.000000pt" viewBox="0 0 260.000000 260.000000"
 preserveAspectRatio="xMidYMid meet">
<metadata>
Created by potrace 1.11, written by Peter Selinger 2001-2013
</metadata>
<g transform="translate(0.000000,260.000000) scale(0.100000,-0.100000)"
fill="#000000" stroke="none">
<path d="M50 1980 l0 -580 304 0 304 0 -3 -55 c-2 -32 -28 -134 -65 -248 l-63
-194 -223 -68 c-123 -38 -224 -71 -224 -75 0 -4 101 -37 224 -75 l224 -68 73
-229 74 -228 13 38 c8 20 15 42 16 47 1 6 28 91 60 191 l59 181 206 63 c113
34 217 67 231 72 24 10 23 11 -20 24 -25 8 -54 17 -65 19 -11 3 -74 22 -140
43 -66 21 -141 44 -166 51 l-45 13 -26 79 c-15 44 -24 79 -20 77 90 -48 109
-53 202 -53 76 0 108 5 158 24 l62 23 0 155 0 154 -112 -3 -113 -3 1 -25 c1
-14 2 -29 3 -35 0 -6 29 -9 68 -8 37 2 69 -1 73 -6 3 -5 5 -47 4 -93 0 -82 0
-83 -30 -97 -16 -8 -52 -17 -81 -19 -55 -5 -153 14 -153 29 0 5 -6 9 -13 9
-16 0 -56 43 -80 87 -18 33 -35 139 -29 181 l3 22 270 0 269 0 0 580 0 580
-615 0 -615 0 0 -580z"/>
<path d="M1617 2423 c-13 -21 -59 -94 -102 -163 -42 -69 -92 -147 -109 -175
-18 -27 -42 -66 -54 -85 l-21 -35 112 -180 c62 -99 132 -210 156 -247 l43 -68
71 0 72 0 -2 -32 c-1 -18 -2 -36 -2 -40 -1 -5 -79 -8 -174 -8 l-173 0 0 143 1
142 -40 3 -40 3 0 -333 0 -333 23 -3 c23 -3 29 -21 13 -37 -16 -17 -42 -165
-40 -229 1 -70 30 -197 58 -261 68 -153 218 -285 384 -337 314 -98 662 87 763
407 133 420 -169 839 -599 831 l-94 -1 -2 42 -1 43 202 0 203 0 139 242 c77
133 139 247 139 253 0 6 -62 120 -139 253 l-139 242 -312 0 -313 0 -23 -37z
m22 -1132 c-57 -35 -138 -115 -174 -169 -15 -23 -28 -42 -29 -42 -1 0 -2 54
-2 120 l-1 120 126 0 125 0 -45 -29z"/>
</g>
</svg>
